# xmcd CD database file
#
# Track frame offsets:
#	150
#	23520
#	40546
#	67559
#	84112
#	108561
#	132250
#	165599
#	182860
#	195507
#	217259
#	235910
#	253608
#	267054
#	277431
#
# Disc length: 3952 seconds
#
# Revision: 0
# Processed by: cddbd v1.4PL0 Copyright (c) Steve Scherf et al.
# Submitted via: CDex 1.50Beta6
#
DISCID=c90f6e0f
DTITLE=Jessica Williams  - I Let A Song Go Out of My Heart
DYEAR=2001
DGENRE=Jazz
TTITLE0=Things Ain"t What They Used To Be
TTITLE1=I Let A Song Go Out Of My Heart
TTITLE2=Do Nothing 'Til You Here From Me 
TTITLE3=Interlude # 1
TTITLE4=Prelude to a Kiss
TTITLE5=Satin Doll
TTITLE6=In a Sentimental Mood
TTITLE7=It Don't Mean a Thing
TTITLE8=Interlude # 2
TTITLE9=Angelica
TTITLE10=Caravan
TTITLE11=Son't Get Around Much Anymore
TTITLE12=Interlude # 3
TTITLE13=C-Jam Blues
TTITLE14=Duke's Place
EXTD=YEAR: 2001
EXTT0=
EXTT1=
EXTT2=
EXTT3=
EXTT4=
EXTT5=
EXTT6=
EXTT7=
EXTT8=
EXTT9=
EXTT10=
EXTT11=
EXTT12=
EXTT13=
EXTT14=
PLAYORDER=
